<svg width="200" height="200" viewBox="0 0 200 200" xmlns="http://www.w3.org/2000/svg">
  <!-- Тело котика -->
  <ellipse cx="100" cy="130" rx="45" ry="35" fill="#7C3AED" stroke="#6D28D9" stroke-width="2"/>
  
  <!-- Голова котика -->
  <circle cx="100" cy="80" r="40" fill="#7C3AED" stroke="#6D28D9" stroke-width="2"/>
  
  <!-- Ушки -->
  <polygon points="75,50 85,25 95,50" fill="#7C3AED" stroke="#6D28D9" stroke-width="2"/>
  <polygon points="105,50 115,25 125,50" fill="#7C3AED" stroke="#6D28D9" stroke-width="2"/>
  <polygon points="78,47 82,32 88,47" fill="#EC4899"/>
  <polygon points="112,47 118,32 122,47" fill="#EC4899"/>
  
  <!-- Лапки -->
  <ellipse cx="75" cy="160" rx="12" ry="20" fill="#7C3AED" stroke="#6D28D9" stroke-width="2"/>
  <ellipse cx="125" cy="160" rx="12" ry="20" fill="#7C3AED" stroke="#6D28D9" stroke-width="2"/>
  <ellipse cx="65" cy="120" rx="10" ry="15" fill="#7C3AED" stroke="#6D28D9" stroke-width="2"/>
  <ellipse cx="135" cy="120" rx="10" ry="15" fill="#7C3AED" stroke="#6D28D9" stroke-width="2"/>
  
  <!-- Хвостик -->
  <path d="M 145 130 Q 170 120 165 100 Q 160 85 175 80" stroke="#7C3AED" stroke-width="8" fill="none" stroke-linecap="round"/>
  
  <!-- Мордочка -->
  <!-- Глазки -->
  <circle cx="88" cy="75" r="8" fill="#FFFFFF"/>
  <circle cx="112" cy="75" r="8" fill="#FFFFFF"/>
  <circle cx="88" cy="75" r="5" fill="#1F2937"/>
  <circle cx="112" cy="75" r="5" fill="#1F2937"/>
  <circle cx="90" cy="73" r="2" fill="#FFFFFF"/>
  <circle cx="114" cy="73" r="2" fill="#FFFFFF"/>
  
  <!-- Носик -->
  <polygon points="100,85 95,90 105,90" fill="#EC4899"/>
  
  <!-- Ротик -->
  <path d="M 100 92 Q 95 95 90 92" stroke="#1F2937" stroke-width="2" fill="none" stroke-linecap="round"/>
  <path d="M 100 92 Q 105 95 110 92" stroke="#1F2937" stroke-width="2" fill="none" stroke-linecap="round"/>
  
  <!-- Усики -->
  <line x1="60" y1="80" x2="75" y2="78" stroke="#1F2937" stroke-width="2" stroke-linecap="round"/>
  <line x1="60" y1="88" x2="75" y2="86" stroke="#1F2937" stroke-width="2" stroke-linecap="round"/>
  <line x1="140" y1="80" x2="125" y2="78" stroke="#1F2937" stroke-width="2" stroke-linecap="round"/>
  <line x1="140" y1="88" x2="125" y2="86" stroke="#1F2937" stroke-width="2" stroke-linecap="round"/>
  
  <!-- Код символы вокруг котика -->
  <text x="25" y="40" font-family="JetBrains Mono, monospace" font-size="12" fill="#10B981">&lt;/&gt;</text>
  <text x="155" y="40" font-family="JetBrains Mono, monospace" font-size="12" fill="#10B981">{}</text>
  <text x="20" y="180" font-family="JetBrains Mono, monospace" font-size="10" fill="#3B82F6">npm</text>
  <text x="160" y="180" font-family="JetBrains Mono, monospace" font-size="10" fill="#F59E0B">git</text>
  
  <!-- Очки программиста (опционально) -->
  <circle cx="88" cy="75" r="12" fill="none" stroke="#1F2937" stroke-width="2"/>
  <circle cx="112" cy="75" r="12" fill="none" stroke="#1F2937" stroke-width="2"/>
  <line x1="100" y1="75" x2="100" y2="75" stroke="#1F2937" stroke-width="2"/>
  
  <!-- Галстук-бабочка -->
  <polygon points="95,100 105,100 102,105 98,105" fill="#EF4444"/>
  <polygon points="92,102 98,102 95,107" fill="#DC2626"/>
  <polygon points="102,102 108,102 105,107" fill="#DC2626"/>
</svg>
