<?xml version="1.0" encoding="UTF-8"?>
<svg xmlns="http://www.w3.org/2000/svg" xmlns:xlink="http://www.w3.org/1999/xlink" width="419.471pt" height="357.396pt" viewBox="0 0 419.471 357.396" version="1.2">
<defs>
<clipPath id="clip1">
  <path d="M 214.085938 96.3125 L 371.851562 96.3125 L 371.851562 121.226562 L 214.085938 121.226562 Z M 46.160156 96.3125 L 203.921875 96.3125 L 203.921875 121.226562 L 46.160156 121.226562 Z M 346.925781 121.226562 L 371.851562 121.226562 L 371.851562 253.902344 L 346.925781 253.902344 Z M 46.160156 121.226562 L 71.082031 121.226562 L 71.082031 253.902344 L 46.160156 253.902344 Z M 46.160156 253.902344 L 203.921875 253.902344 L 203.921875 278.816406 L 46.160156 278.816406 Z M 214.085938 253.902344 L 371.851562 253.902344 L 371.851562 278.816406 L 214.085938 278.816406 Z M 214.085938 253.902344 "/>
</clipPath>
<linearGradient id="linear0" gradientUnits="userSpaceOnUse" x1="0.00000219009" y1="0" x2="1" y2="0" gradientTransform="matrix(325.691372,0,0,325.691372,46.15923,187.565144)">
<stop offset="0" style="stop-color:rgb(0%,43.136597%,68.234253%);stop-opacity:1;"/>
<stop offset="0.0078125" style="stop-color:rgb(0%,43.325806%,68.310547%);stop-opacity:1;"/>
<stop offset="0.015625" style="stop-color:rgb(0%,43.70575%,68.464661%);stop-opacity:1;"/>
<stop offset="0.0234375" style="stop-color:rgb(0%,44.085693%,68.617249%);stop-opacity:1;"/>
<stop offset="0.03125" style="stop-color:rgb(0%,44.465637%,68.769836%);stop-opacity:1;"/>
<stop offset="0.0390625" style="stop-color:rgb(0%,44.845581%,68.92395%);stop-opacity:1;"/>
<stop offset="0.046875" style="stop-color:rgb(0%,45.225525%,69.076538%);stop-opacity:1;"/>
<stop offset="0.0546875" style="stop-color:rgb(0%,45.605469%,69.230652%);stop-opacity:1;"/>
<stop offset="0.0625" style="stop-color:rgb(0%,45.985413%,69.38324%);stop-opacity:1;"/>
<stop offset="0.0703125" style="stop-color:rgb(0%,46.365356%,69.535828%);stop-opacity:1;"/>
<stop offset="0.078125" style="stop-color:rgb(0%,46.7453%,69.689941%);stop-opacity:1;"/>
<stop offset="0.0859375" style="stop-color:rgb(0%,47.125244%,69.842529%);stop-opacity:1;"/>
<stop offset="0.09375" style="stop-color:rgb(0%,47.505188%,69.996643%);stop-opacity:1;"/>
<stop offset="0.101562" style="stop-color:rgb(0%,47.885132%,70.149231%);stop-opacity:1;"/>
<stop offset="0.109375" style="stop-color:rgb(0%,48.265076%,70.301819%);stop-opacity:1;"/>
<stop offset="0.117188" style="stop-color:rgb(0%,48.64502%,70.455933%);stop-opacity:1;"/>
<stop offset="0.125" style="stop-color:rgb(0%,49.024963%,70.608521%);stop-opacity:1;"/>
<stop offset="0.132812" style="stop-color:rgb(0%,49.404907%,70.761108%);stop-opacity:1;"/>
<stop offset="0.140625" style="stop-color:rgb(0%,49.784851%,70.915222%);stop-opacity:1;"/>
<stop offset="0.148438" style="stop-color:rgb(0%,50.164795%,71.06781%);stop-opacity:1;"/>
<stop offset="0.15625" style="stop-color:rgb(0%,50.543213%,71.221924%);stop-opacity:1;"/>
<stop offset="0.164062" style="stop-color:rgb(0%,50.923157%,71.374512%);stop-opacity:1;"/>
<stop offset="0.171875" style="stop-color:rgb(0%,51.303101%,71.5271%);stop-opacity:1;"/>
<stop offset="0.179688" style="stop-color:rgb(0%,51.683044%,71.681213%);stop-opacity:1;"/>
<stop offset="0.1875" style="stop-color:rgb(0%,52.062988%,71.833801%);stop-opacity:1;"/>
<stop offset="0.195312" style="stop-color:rgb(0%,52.442932%,71.987915%);stop-opacity:1;"/>
<stop offset="0.203125" style="stop-color:rgb(0%,52.822876%,72.140503%);stop-opacity:1;"/>
<stop offset="0.210938" style="stop-color:rgb(0%,53.20282%,72.293091%);stop-opacity:1;"/>
<stop offset="0.21875" style="stop-color:rgb(0%,53.582764%,72.447205%);stop-opacity:1;"/>
<stop offset="0.226562" style="stop-color:rgb(0%,53.962708%,72.599792%);stop-opacity:1;"/>
<stop offset="0.234375" style="stop-color:rgb(0%,54.342651%,72.753906%);stop-opacity:1;"/>
<stop offset="0.242187" style="stop-color:rgb(0%,54.722595%,72.906494%);stop-opacity:1;"/>
<stop offset="0.25" style="stop-color:rgb(0%,55.102539%,73.059082%);stop-opacity:1;"/>
<stop offset="0.257812" style="stop-color:rgb(0%,55.482483%,73.213196%);stop-opacity:1;"/>
<stop offset="0.265625" style="stop-color:rgb(0%,55.862427%,73.365784%);stop-opacity:1;"/>
<stop offset="0.273438" style="stop-color:rgb(0%,56.242371%,73.519897%);stop-opacity:1;"/>
<stop offset="0.28125" style="stop-color:rgb(0%,56.622314%,73.672485%);stop-opacity:1;"/>
<stop offset="0.289063" style="stop-color:rgb(0%,57.002258%,73.825073%);stop-opacity:1;"/>
<stop offset="0.296875" style="stop-color:rgb(0%,57.382202%,73.979187%);stop-opacity:1;"/>
<stop offset="0.304687" style="stop-color:rgb(0%,57.762146%,74.131775%);stop-opacity:1;"/>
<stop offset="0.3125" style="stop-color:rgb(0%,58.14209%,74.284363%);stop-opacity:1;"/>
<stop offset="0.320312" style="stop-color:rgb(0%,58.522034%,74.438477%);stop-opacity:1;"/>
<stop offset="0.328125" style="stop-color:rgb(0%,58.901978%,74.591064%);stop-opacity:1;"/>
<stop offset="0.335938" style="stop-color:rgb(0%,59.281921%,74.745178%);stop-opacity:1;"/>
<stop offset="0.34375" style="stop-color:rgb(0%,59.661865%,74.897766%);stop-opacity:1;"/>
<stop offset="0.351562" style="stop-color:rgb(0%,60.041809%,75.050354%);stop-opacity:1;"/>
<stop offset="0.359375" style="stop-color:rgb(0%,60.421753%,75.204468%);stop-opacity:1;"/>
<stop offset="0.367188" style="stop-color:rgb(0%,60.801697%,75.357056%);stop-opacity:1;"/>
<stop offset="0.375" style="stop-color:rgb(0%,61.181641%,75.511169%);stop-opacity:1;"/>
<stop offset="0.382813" style="stop-color:rgb(0%,61.561584%,75.663757%);stop-opacity:1;"/>
<stop offset="0.390625" style="stop-color:rgb(0%,61.941528%,75.816345%);stop-opacity:1;"/>
<stop offset="0.398438" style="stop-color:rgb(0%,62.321472%,75.970459%);stop-opacity:1;"/>
<stop offset="0.40625" style="stop-color:rgb(0%,62.701416%,76.123047%);stop-opacity:1;"/>
<stop offset="0.414062" style="stop-color:rgb(0%,63.08136%,76.277161%);stop-opacity:1;"/>
<stop offset="0.421875" style="stop-color:rgb(0%,63.461304%,76.429749%);stop-opacity:1;"/>
<stop offset="0.429688" style="stop-color:rgb(0%,63.841248%,76.582336%);stop-opacity:1;"/>
<stop offset="0.4375" style="stop-color:rgb(0%,64.219666%,76.73645%);stop-opacity:1;"/>
<stop offset="0.445312" style="stop-color:rgb(0%,64.599609%,76.889038%);stop-opacity:1;"/>
<stop offset="0.453125" style="stop-color:rgb(0%,64.979553%,77.043152%);stop-opacity:1;"/>
<stop offset="0.460938" style="stop-color:rgb(0%,65.359497%,77.19574%);stop-opacity:1;"/>
<stop offset="0.46875" style="stop-color:rgb(0%,65.739441%,77.348328%);stop-opacity:1;"/>
<stop offset="0.476563" style="stop-color:rgb(0%,66.119385%,77.502441%);stop-opacity:1;"/>
<stop offset="0.484375" style="stop-color:rgb(0%,66.499329%,77.655029%);stop-opacity:1;"/>
<stop offset="0.492188" style="stop-color:rgb(0%,66.879272%,77.807617%);stop-opacity:1;"/>
<stop offset="0.5" style="stop-color:rgb(0%,67.259216%,77.961731%);stop-opacity:1;"/>
<stop offset="0.507812" style="stop-color:rgb(0.143433%,67.495728%,78.117371%);stop-opacity:1;"/>
<stop offset="0.515625" style="stop-color:rgb(0.430298%,67.58728%,78.277588%);stop-opacity:1;"/>
<stop offset="0.523438" style="stop-color:rgb(0.718689%,67.680359%,78.436279%);stop-opacity:1;"/>
<stop offset="0.53125" style="stop-color:rgb(1.00708%,67.771912%,78.596497%);stop-opacity:1;"/>
<stop offset="0.539062" style="stop-color:rgb(1.293945%,67.863464%,78.755188%);stop-opacity:1;"/>
<stop offset="0.546875" style="stop-color:rgb(1.582336%,67.955017%,78.913879%);stop-opacity:1;"/>
<stop offset="0.554688" style="stop-color:rgb(1.870728%,68.048096%,79.074097%);stop-opacity:1;"/>
<stop offset="0.5625" style="stop-color:rgb(2.159119%,68.139648%,79.232788%);stop-opacity:1;"/>
<stop offset="0.570313" style="stop-color:rgb(2.445984%,68.231201%,79.393005%);stop-opacity:1;"/>
<stop offset="0.578125" style="stop-color:rgb(2.734375%,68.322754%,79.551697%);stop-opacity:1;"/>
<stop offset="0.585938" style="stop-color:rgb(3.022766%,68.415833%,79.710388%);stop-opacity:1;"/>
<stop offset="0.59375" style="stop-color:rgb(3.311157%,68.507385%,79.870605%);stop-opacity:1;"/>
<stop offset="0.601562" style="stop-color:rgb(3.598022%,68.598938%,80.029297%);stop-opacity:1;"/>
<stop offset="0.609375" style="stop-color:rgb(3.886414%,68.690491%,80.189514%);stop-opacity:1;"/>
<stop offset="0.617188" style="stop-color:rgb(4.174805%,68.782043%,80.348206%);stop-opacity:1;"/>
<stop offset="0.625" style="stop-color:rgb(4.463196%,68.875122%,80.506897%);stop-opacity:1;"/>
<stop offset="0.632812" style="stop-color:rgb(4.750061%,68.966675%,80.667114%);stop-opacity:1;"/>
<stop offset="0.640625" style="stop-color:rgb(5.038452%,69.058228%,80.825806%);stop-opacity:1;"/>
<stop offset="0.648438" style="stop-color:rgb(5.326843%,69.14978%,80.986023%);stop-opacity:1;"/>
<stop offset="0.65625" style="stop-color:rgb(5.615234%,69.242859%,81.144714%);stop-opacity:1;"/>
<stop offset="0.664063" style="stop-color:rgb(5.9021%,69.334412%,81.303406%);stop-opacity:1;"/>
<stop offset="0.671875" style="stop-color:rgb(6.190491%,69.425964%,81.463623%);stop-opacity:1;"/>
<stop offset="0.679688" style="stop-color:rgb(6.478882%,69.517517%,81.622314%);stop-opacity:1;"/>
<stop offset="0.6875" style="stop-color:rgb(6.765747%,69.610596%,81.782532%);stop-opacity:1;"/>
<stop offset="0.695312" style="stop-color:rgb(7.054138%,69.702148%,81.941223%);stop-opacity:1;"/>
<stop offset="0.703125" style="stop-color:rgb(7.342529%,69.793701%,82.099915%);stop-opacity:1;"/>
<stop offset="0.710938" style="stop-color:rgb(7.63092%,69.885254%,82.260132%);stop-opacity:1;"/>
<stop offset="0.71875" style="stop-color:rgb(7.917786%,69.978333%,82.418823%);stop-opacity:1;"/>
<stop offset="0.726562" style="stop-color:rgb(8.206177%,70.069885%,82.579041%);stop-opacity:1;"/>
<stop offset="0.734375" style="stop-color:rgb(8.494568%,70.161438%,82.737732%);stop-opacity:1;"/>
<stop offset="0.742188" style="stop-color:rgb(8.782959%,70.252991%,82.897949%);stop-opacity:1;"/>
<stop offset="0.75" style="stop-color:rgb(9.069824%,70.344543%,83.056641%);stop-opacity:1;"/>
<stop offset="0.757813" style="stop-color:rgb(9.358215%,70.437622%,83.215332%);stop-opacity:1;"/>
<stop offset="0.765625" style="stop-color:rgb(9.646606%,70.529175%,83.375549%);stop-opacity:1;"/>
<stop offset="0.773438" style="stop-color:rgb(9.934998%,70.620728%,83.534241%);stop-opacity:1;"/>
<stop offset="0.78125" style="stop-color:rgb(10.221863%,70.71228%,83.694458%);stop-opacity:1;"/>
<stop offset="0.789062" style="stop-color:rgb(10.510254%,70.805359%,83.853149%);stop-opacity:1;"/>
<stop offset="0.796875" style="stop-color:rgb(10.798645%,70.896912%,84.011841%);stop-opacity:1;"/>
<stop offset="0.804688" style="stop-color:rgb(11.087036%,70.988464%,84.172058%);stop-opacity:1;"/>
<stop offset="0.8125" style="stop-color:rgb(11.373901%,71.080017%,84.33075%);stop-opacity:1;"/>
<stop offset="0.820312" style="stop-color:rgb(11.662292%,71.173096%,84.490967%);stop-opacity:1;"/>
<stop offset="0.828125" style="stop-color:rgb(11.950684%,71.264648%,84.649658%);stop-opacity:1;"/>
<stop offset="0.835938" style="stop-color:rgb(12.237549%,71.356201%,84.80835%);stop-opacity:1;"/>
<stop offset="0.84375" style="stop-color:rgb(12.52594%,71.447754%,84.968567%);stop-opacity:1;"/>
<stop offset="0.851563" style="stop-color:rgb(12.814331%,71.540833%,85.127258%);stop-opacity:1;"/>
<stop offset="0.859375" style="stop-color:rgb(13.102722%,71.632385%,85.287476%);stop-opacity:1;"/>
<stop offset="0.867188" style="stop-color:rgb(13.389587%,71.723938%,85.446167%);stop-opacity:1;"/>
<stop offset="0.875" style="stop-color:rgb(13.677979%,71.815491%,85.604858%);stop-opacity:1;"/>
<stop offset="0.882812" style="stop-color:rgb(13.96637%,71.907043%,85.765076%);stop-opacity:1;"/>
<stop offset="0.890625" style="stop-color:rgb(14.254761%,72.000122%,85.923767%);stop-opacity:1;"/>
<stop offset="0.898438" style="stop-color:rgb(14.541626%,72.091675%,86.083984%);stop-opacity:1;"/>
<stop offset="0.90625" style="stop-color:rgb(14.830017%,72.183228%,86.242676%);stop-opacity:1;"/>
<stop offset="0.914062" style="stop-color:rgb(15.118408%,72.27478%,86.401367%);stop-opacity:1;"/>
<stop offset="0.921875" style="stop-color:rgb(15.406799%,72.367859%,86.561584%);stop-opacity:1;"/>
<stop offset="0.929688" style="stop-color:rgb(15.693665%,72.459412%,86.720276%);stop-opacity:1;"/>
<stop offset="0.9375" style="stop-color:rgb(15.982056%,72.550964%,86.880493%);stop-opacity:1;"/>
<stop offset="0.945313" style="stop-color:rgb(16.270447%,72.642517%,87.039185%);stop-opacity:1;"/>
<stop offset="0.953125" style="stop-color:rgb(16.558838%,72.735596%,87.199402%);stop-opacity:1;"/>
<stop offset="0.960938" style="stop-color:rgb(16.845703%,72.827148%,87.358093%);stop-opacity:1;"/>
<stop offset="0.96875" style="stop-color:rgb(17.134094%,72.918701%,87.516785%);stop-opacity:1;"/>
<stop offset="0.976562" style="stop-color:rgb(17.422485%,73.010254%,87.677002%);stop-opacity:1;"/>
<stop offset="0.984375" style="stop-color:rgb(17.709351%,73.103333%,87.835693%);stop-opacity:1;"/>
<stop offset="0.992188" style="stop-color:rgb(17.997742%,73.194885%,87.995911%);stop-opacity:1;"/>
<stop offset="1" style="stop-color:rgb(18.286133%,73.286438%,88.154602%);stop-opacity:1;"/>
</linearGradient>
</defs>
<pageSet>
<page>
<g id="surface1">
<path style=" stroke:none;fill-rule:nonzero;fill:rgb(14.898682%,24.699402%,54.899597%);fill-opacity:1;" d="M 203.917969 157.734375 L 124.390625 157.734375 L 124.390625 177.613281 L 184.039062 177.613281 L 184.039062 197.503906 L 124.390625 197.503906 L 124.390625 217.386719 L 203.917969 217.386719 L 203.917969 237.265625 L 104.511719 237.265625 L 104.511719 137.847656 L 203.917969 137.847656 Z M 203.917969 157.734375 "/>
<path style=" stroke:none;fill-rule:nonzero;fill:rgb(14.898682%,24.699402%,54.899597%);fill-opacity:1;" d="M 307.703125 187.5625 C 311.570312 194.1875 313.503906 201.917969 313.503906 210.75 C 313.503906 228.429688 303.5625 237.265625 283.675781 237.265625 L 214.089844 237.265625 L 214.089844 217.386719 L 283.675781 217.386719 C 290.304688 217.386719 293.621094 214.070312 293.621094 207.441406 C 293.621094 200.808594 290.304688 197.503906 283.675781 197.503906 L 253.851562 197.503906 L 253.851562 177.613281 L 283.675781 177.613281 C 290.304688 177.613281 293.621094 174.296875 293.621094 167.671875 C 293.621094 161.042969 290.304688 157.734375 283.675781 157.734375 L 214.089844 157.734375 L 214.089844 137.847656 L 287.820312 137.847656 C 304.941406 137.847656 313.503906 147.789062 313.503906 167.671875 C 313.503906 174.296875 311.570312 180.925781 307.703125 187.5625 "/>
<g clip-path="url(#clip1)" clip-rule="nonzero">
<path style=" stroke:none;fill-rule:nonzero;fill:url(#linear0);" d="M 46.160156 96.3125 L 46.160156 278.816406 L 371.851562 278.816406 L 371.851562 96.3125 Z M 46.160156 96.3125 "/>
</g>
<path style=" stroke:none;fill-rule:nonzero;fill:rgb(16.099548%,16.899109%,18.399048%);fill-opacity:1;" d="M 87.699219 38.136719 L 54.46875 38.136719 L 54.46875 46.445312 L 79.390625 46.445312 L 79.390625 54.75 L 54.46875 54.75 L 54.46875 63.058594 L 87.699219 63.058594 L 87.699219 71.367188 L 46.160156 71.367188 L 46.160156 29.828125 L 87.699219 29.828125 Z M 87.699219 38.136719 "/>
<path style=" stroke:none;fill-rule:nonzero;fill:rgb(16.099548%,16.899109%,18.399048%);fill-opacity:1;" d="M 132.695312 63.058594 L 132.695312 41.597656 C 132.695312 38.828125 131.3125 37.445312 128.542969 37.445312 L 116.082031 37.445312 C 113.3125 37.445312 111.925781 38.828125 111.925781 41.597656 L 111.925781 63.058594 Z M 141.007812 63.058594 L 145.160156 63.058594 L 145.160156 79.675781 L 136.855469 79.675781 L 136.855469 71.367188 L 107.773438 71.367188 L 107.773438 79.675781 L 99.46875 79.675781 L 99.46875 63.058594 L 103.617188 63.058594 L 103.617188 41.597656 C 103.617188 33.289062 107.773438 29.136719 116.082031 29.136719 L 128.542969 29.136719 C 136.855469 29.136719 141.007812 33.289062 141.007812 41.597656 Z M 141.007812 63.058594 "/>
<path style=" stroke:none;fill-rule:nonzero;fill:rgb(16.099548%,16.899109%,18.399048%);fill-opacity:1;" d="M 198.464844 71.363281 L 190.160156 71.363281 L 190.160156 42.566406 L 165.238281 71.363281 L 156.929688 71.363281 L 156.929688 29.828125 L 165.238281 29.828125 L 165.238281 58.628906 L 190.160156 29.828125 L 198.464844 29.828125 Z M 198.464844 71.363281 "/>
<path style=" stroke:none;fill-rule:nonzero;fill:rgb(16.099548%,16.899109%,18.399048%);fill-opacity:1;" d="M 252.386719 71.363281 L 244.082031 71.363281 L 244.082031 54.753906 L 219.160156 54.753906 L 219.160156 71.363281 L 210.851562 71.363281 L 210.851562 29.828125 L 219.160156 29.828125 L 219.160156 46.441406 L 244.082031 46.441406 L 244.082031 29.828125 L 252.386719 29.828125 Z M 252.386719 71.363281 "/>
<path style=" stroke:none;fill-rule:nonzero;fill:rgb(16.099548%,16.899109%,18.399048%);fill-opacity:1;" d="M 318.632812 29.828125 L 310.324219 29.828125 L 310.324219 71.367188 L 318.632812 71.367188 Z M 297.867188 54.75 C 297.867188 51.980469 296.480469 50.597656 293.710938 50.597656 L 272.949219 50.597656 L 272.949219 63.058594 L 293.710938 63.058594 C 296.480469 63.058594 297.867188 61.675781 297.867188 58.90625 Z M 293.710938 71.367188 L 264.632812 71.367188 L 264.632812 29.828125 L 272.949219 29.828125 L 272.949219 42.289062 L 293.710938 42.289062 C 302.019531 42.289062 306.175781 46.445312 306.175781 54.75 L 306.175781 58.90625 C 306.175781 67.210938 302.019531 71.367188 293.710938 71.367188 "/>
<path style=" stroke:none;fill-rule:nonzero;fill:rgb(16.099548%,16.899109%,18.399048%);fill-opacity:1;" d="M 355.246094 17.367188 L 346.933594 17.367188 L 346.933594 25.675781 L 355.246094 25.675781 Z M 371.855469 71.367188 L 363.550781 71.367188 L 363.550781 42.566406 L 338.628906 71.367188 L 330.320312 71.367188 L 330.320312 29.828125 L 338.628906 29.828125 L 338.628906 58.628906 L 363.550781 29.828125 L 371.855469 29.828125 Z M 371.855469 71.367188 "/>
<path style=" stroke:none;fill-rule:nonzero;fill:rgb(16.099548%,16.899109%,18.399048%);fill-opacity:1;" d="M 79.792969 321.570312 C 81.179688 323.949219 81.875 326.730469 81.875 329.902344 C 81.875 336.253906 78.304688 339.425781 71.164062 339.425781 L 46.160156 339.425781 L 46.160156 332.28125 L 71.164062 332.28125 C 73.542969 332.28125 74.734375 331.09375 74.734375 328.714844 C 74.734375 326.328125 73.542969 325.136719 71.164062 325.136719 L 60.445312 325.136719 L 60.445312 317.996094 L 71.164062 317.996094 C 73.542969 317.996094 74.734375 316.8125 74.734375 314.425781 C 74.734375 312.046875 73.542969 310.855469 71.164062 310.855469 L 46.160156 310.855469 L 46.160156 303.710938 L 72.648438 303.710938 C 78.796875 303.710938 81.875 307.28125 81.875 314.425781 C 81.875 316.8125 81.179688 319.191406 79.792969 321.570312 "/>
<path style=" stroke:none;fill-rule:nonzero;fill:rgb(16.099548%,16.899109%,18.399048%);fill-opacity:1;" d="M 116.402344 325.136719 L 116.402344 313.828125 C 116.402344 311.449219 115.207031 310.257812 112.828125 310.257812 L 98.542969 310.257812 C 96.164062 310.257812 94.96875 311.449219 94.96875 313.828125 L 94.96875 325.136719 Z M 123.539062 339.425781 L 116.402344 339.425781 L 116.402344 332.28125 L 94.96875 332.28125 L 94.96875 339.425781 L 87.832031 339.425781 L 87.832031 313.828125 C 87.832031 306.691406 91.402344 303.117188 98.542969 303.117188 L 112.828125 303.117188 C 119.972656 303.117188 123.539062 306.691406 123.539062 313.828125 Z M 123.539062 339.425781 "/>
<path style=" stroke:none;fill-rule:nonzero;fill:rgb(16.099548%,16.899109%,18.399048%);fill-opacity:1;" d="M 165.550781 339.425781 L 156.449219 339.425781 L 145.011719 325.136719 L 136.984375 325.136719 L 136.984375 339.425781 L 129.835938 339.425781 L 129.835938 303.710938 L 136.984375 303.710938 L 136.984375 317.996094 L 145.011719 317.996094 L 156.449219 303.710938 L 165.550781 303.710938 L 151.265625 321.570312 Z M 165.550781 339.425781 "/>
<path style=" stroke:none;fill-rule:nonzero;fill:rgb(16.099548%,16.899109%,18.399048%);fill-opacity:1;" d="M 198.289062 325.136719 L 198.289062 313.828125 C 198.289062 311.449219 197.101562 310.257812 194.722656 310.257812 L 180.433594 310.257812 C 178.054688 310.257812 176.859375 311.449219 176.859375 313.828125 L 176.859375 325.136719 Z M 205.429688 339.425781 L 198.289062 339.425781 L 198.289062 332.28125 L 176.859375 332.28125 L 176.859375 339.425781 L 169.722656 339.425781 L 169.722656 313.828125 C 169.722656 306.691406 173.289062 303.117188 180.433594 303.117188 L 194.722656 303.117188 C 201.867188 303.117188 205.429688 306.691406 205.429688 313.828125 Z M 205.429688 339.425781 "/>
<path style=" stroke:none;fill-rule:nonzero;fill:rgb(16.099548%,16.899109%,18.399048%);fill-opacity:1;" d="M 245.023438 321.570312 C 246.402344 323.949219 247.09375 326.730469 247.09375 329.902344 C 247.09375 336.253906 243.527344 339.425781 236.386719 339.425781 L 211.390625 339.425781 L 211.390625 332.28125 L 236.386719 332.28125 C 238.761719 332.28125 239.957031 331.09375 239.957031 328.714844 C 239.957031 326.328125 238.761719 325.136719 236.386719 325.136719 L 225.671875 325.136719 L 225.671875 317.996094 L 236.386719 317.996094 C 238.761719 317.996094 239.957031 316.8125 239.957031 314.425781 C 239.957031 312.046875 238.761719 310.855469 236.386719 310.855469 L 211.390625 310.855469 L 211.390625 303.710938 L 237.875 303.710938 C 244.019531 303.710938 247.09375 307.28125 247.09375 314.425781 C 247.09375 316.8125 246.402344 319.191406 245.023438 321.570312 "/>
<path style=" stroke:none;fill-rule:nonzero;fill:rgb(16.099548%,16.899109%,18.399048%);fill-opacity:1;" d="M 260.195312 303.710938 L 260.195312 317.996094 C 260.195312 320.378906 261.386719 321.570312 263.769531 321.570312 L 281.621094 321.570312 L 281.621094 303.710938 L 288.769531 303.710938 L 288.769531 339.425781 L 281.621094 339.425781 L 281.621094 328.714844 L 263.769531 328.714844 C 256.625 328.714844 253.050781 325.136719 253.050781 317.996094 L 253.050781 303.710938 Z M 260.195312 303.710938 "/>
<path style=" stroke:none;fill-rule:nonzero;fill:rgb(16.099548%,16.899109%,18.399048%);fill-opacity:1;" d="M 330.773438 339.425781 L 323.632812 339.425781 L 323.632812 314.664062 L 302.207031 339.425781 L 295.058594 339.425781 L 295.058594 303.710938 L 302.207031 303.710938 L 302.207031 328.472656 L 323.632812 303.710938 L 330.773438 303.710938 Z M 330.773438 339.425781 "/>
<path style=" stroke:none;fill-rule:nonzero;fill:rgb(16.099548%,16.899109%,18.399048%);fill-opacity:1;" d="M 372.78125 339.425781 L 363.679688 339.425781 L 352.25 325.136719 L 344.207031 325.136719 L 344.207031 339.425781 L 337.070312 339.425781 L 337.070312 303.710938 L 344.207031 303.710938 L 344.207031 317.996094 L 352.25 317.996094 L 363.679688 303.710938 L 372.78125 303.710938 L 358.5 321.570312 Z M 372.78125 339.425781 "/>
</g>
</page>
<page>
<g id="surface1">
<path style=" stroke:none;fill-rule:nonzero;fill:rgb(100%,100%,100%);fill-opacity:1;" d="M 203.917969 157.734375 L 124.390625 157.734375 L 124.390625 177.613281 L 184.039062 177.613281 L 184.039062 197.503906 L 124.390625 197.503906 L 124.390625 217.386719 L 203.917969 217.386719 L 203.917969 237.265625 L 104.511719 237.265625 L 104.511719 137.847656 L 203.917969 137.847656 Z M 203.917969 157.734375 "/>
<path style=" stroke:none;fill-rule:nonzero;fill:rgb(100%,100%,100%);fill-opacity:1;" d="M 307.703125 187.5625 C 311.570312 194.1875 313.503906 201.917969 313.503906 210.75 C 313.503906 228.429688 303.5625 237.265625 283.675781 237.265625 L 214.089844 237.265625 L 214.089844 217.386719 L 283.675781 217.386719 C 290.304688 217.386719 293.621094 214.070312 293.621094 207.441406 C 293.621094 200.808594 290.304688 197.503906 283.675781 197.503906 L 253.851562 197.503906 L 253.851562 177.613281 L 283.675781 177.613281 C 290.304688 177.613281 293.621094 174.296875 293.621094 167.671875 C 293.621094 161.042969 290.304688 157.734375 283.675781 157.734375 L 214.089844 157.734375 L 214.089844 137.847656 L 287.820312 137.847656 C 304.941406 137.847656 313.503906 147.789062 313.503906 167.671875 C 313.503906 174.296875 311.570312 180.925781 307.703125 187.5625 "/>
<path style=" stroke:none;fill-rule:nonzero;fill:rgb(100%,100%,100%);fill-opacity:1;" d="M 214.085938 278.816406 L 371.851562 278.816406 L 371.851562 96.3125 L 214.085938 96.3125 L 214.085938 121.226562 L 346.929688 121.226562 L 346.929688 253.902344 L 214.085938 253.902344 Z M 203.917969 253.902344 L 71.082031 253.902344 L 71.082031 121.226562 L 203.917969 121.226562 L 203.917969 96.3125 L 46.160156 96.3125 L 46.160156 278.816406 L 203.917969 278.816406 Z M 203.917969 253.902344 "/>
<path style=" stroke:none;fill-rule:nonzero;fill:rgb(100%,100%,100%);fill-opacity:1;" d="M 87.699219 38.136719 L 54.46875 38.136719 L 54.46875 46.445312 L 79.390625 46.445312 L 79.390625 54.75 L 54.46875 54.75 L 54.46875 63.058594 L 87.699219 63.058594 L 87.699219 71.367188 L 46.160156 71.367188 L 46.160156 29.828125 L 87.699219 29.828125 Z M 87.699219 38.136719 "/>
<path style=" stroke:none;fill-rule:nonzero;fill:rgb(100%,100%,100%);fill-opacity:1;" d="M 132.695312 63.058594 L 132.695312 41.597656 C 132.695312 38.828125 131.3125 37.445312 128.542969 37.445312 L 116.082031 37.445312 C 113.3125 37.445312 111.925781 38.828125 111.925781 41.597656 L 111.925781 63.058594 Z M 141.007812 63.058594 L 145.160156 63.058594 L 145.160156 79.675781 L 136.855469 79.675781 L 136.855469 71.367188 L 107.773438 71.367188 L 107.773438 79.675781 L 99.46875 79.675781 L 99.46875 63.058594 L 103.617188 63.058594 L 103.617188 41.597656 C 103.617188 33.289062 107.773438 29.136719 116.082031 29.136719 L 128.542969 29.136719 C 136.855469 29.136719 141.007812 33.289062 141.007812 41.597656 Z M 141.007812 63.058594 "/>
<path style=" stroke:none;fill-rule:nonzero;fill:rgb(100%,100%,100%);fill-opacity:1;" d="M 198.464844 71.363281 L 190.160156 71.363281 L 190.160156 42.566406 L 165.238281 71.363281 L 156.929688 71.363281 L 156.929688 29.828125 L 165.238281 29.828125 L 165.238281 58.628906 L 190.160156 29.828125 L 198.464844 29.828125 Z M 198.464844 71.363281 "/>
<path style=" stroke:none;fill-rule:nonzero;fill:rgb(100%,100%,100%);fill-opacity:1;" d="M 252.386719 71.363281 L 244.082031 71.363281 L 244.082031 54.753906 L 219.160156 54.753906 L 219.160156 71.363281 L 210.851562 71.363281 L 210.851562 29.828125 L 219.160156 29.828125 L 219.160156 46.441406 L 244.082031 46.441406 L 244.082031 29.828125 L 252.386719 29.828125 Z M 252.386719 71.363281 "/>
<path style=" stroke:none;fill-rule:nonzero;fill:rgb(100%,100%,100%);fill-opacity:1;" d="M 318.632812 29.828125 L 310.324219 29.828125 L 310.324219 71.367188 L 318.632812 71.367188 Z M 297.867188 54.75 C 297.867188 51.980469 296.480469 50.597656 293.710938 50.597656 L 272.949219 50.597656 L 272.949219 63.058594 L 293.710938 63.058594 C 296.480469 63.058594 297.867188 61.675781 297.867188 58.90625 Z M 293.710938 71.367188 L 264.632812 71.367188 L 264.632812 29.828125 L 272.949219 29.828125 L 272.949219 42.289062 L 293.710938 42.289062 C 302.019531 42.289062 306.175781 46.445312 306.175781 54.75 L 306.175781 58.90625 C 306.175781 67.210938 302.019531 71.367188 293.710938 71.367188 "/>
<path style=" stroke:none;fill-rule:nonzero;fill:rgb(100%,100%,100%);fill-opacity:1;" d="M 355.246094 17.367188 L 346.933594 17.367188 L 346.933594 25.675781 L 355.246094 25.675781 Z M 371.855469 71.367188 L 363.550781 71.367188 L 363.550781 42.566406 L 338.628906 71.367188 L 330.320312 71.367188 L 330.320312 29.828125 L 338.628906 29.828125 L 338.628906 58.628906 L 363.550781 29.828125 L 371.855469 29.828125 Z M 371.855469 71.367188 "/>
<path style=" stroke:none;fill-rule:nonzero;fill:rgb(100%,100%,100%);fill-opacity:1;" d="M 79.792969 321.570312 C 81.179688 323.949219 81.875 326.730469 81.875 329.902344 C 81.875 336.253906 78.304688 339.425781 71.164062 339.425781 L 46.160156 339.425781 L 46.160156 332.28125 L 71.164062 332.28125 C 73.542969 332.28125 74.734375 331.09375 74.734375 328.714844 C 74.734375 326.328125 73.542969 325.136719 71.164062 325.136719 L 60.445312 325.136719 L 60.445312 317.996094 L 71.164062 317.996094 C 73.542969 317.996094 74.734375 316.8125 74.734375 314.425781 C 74.734375 312.046875 73.542969 310.855469 71.164062 310.855469 L 46.160156 310.855469 L 46.160156 303.710938 L 72.648438 303.710938 C 78.796875 303.710938 81.875 307.28125 81.875 314.425781 C 81.875 316.8125 81.179688 319.191406 79.792969 321.570312 "/>
<path style=" stroke:none;fill-rule:nonzero;fill:rgb(100%,100%,100%);fill-opacity:1;" d="M 116.402344 325.136719 L 116.402344 313.828125 C 116.402344 311.449219 115.207031 310.257812 112.828125 310.257812 L 98.542969 310.257812 C 96.164062 310.257812 94.96875 311.449219 94.96875 313.828125 L 94.96875 325.136719 Z M 123.539062 339.425781 L 116.402344 339.425781 L 116.402344 332.28125 L 94.96875 332.28125 L 94.96875 339.425781 L 87.832031 339.425781 L 87.832031 313.828125 C 87.832031 306.691406 91.402344 303.117188 98.542969 303.117188 L 112.828125 303.117188 C 119.972656 303.117188 123.539062 306.691406 123.539062 313.828125 Z M 123.539062 339.425781 "/>
<path style=" stroke:none;fill-rule:nonzero;fill:rgb(100%,100%,100%);fill-opacity:1;" d="M 165.550781 339.425781 L 156.449219 339.425781 L 145.011719 325.136719 L 136.984375 325.136719 L 136.984375 339.425781 L 129.835938 339.425781 L 129.835938 303.710938 L 136.984375 303.710938 L 136.984375 317.996094 L 145.011719 317.996094 L 156.449219 303.710938 L 165.550781 303.710938 L 151.265625 321.570312 Z M 165.550781 339.425781 "/>
<path style=" stroke:none;fill-rule:nonzero;fill:rgb(100%,100%,100%);fill-opacity:1;" d="M 198.289062 325.136719 L 198.289062 313.828125 C 198.289062 311.449219 197.101562 310.257812 194.722656 310.257812 L 180.433594 310.257812 C 178.054688 310.257812 176.859375 311.449219 176.859375 313.828125 L 176.859375 325.136719 Z M 205.429688 339.425781 L 198.289062 339.425781 L 198.289062 332.28125 L 176.859375 332.28125 L 176.859375 339.425781 L 169.722656 339.425781 L 169.722656 313.828125 C 169.722656 306.691406 173.289062 303.117188 180.433594 303.117188 L 194.722656 303.117188 C 201.867188 303.117188 205.429688 306.691406 205.429688 313.828125 Z M 205.429688 339.425781 "/>
<path style=" stroke:none;fill-rule:nonzero;fill:rgb(100%,100%,100%);fill-opacity:1;" d="M 245.023438 321.570312 C 246.402344 323.949219 247.09375 326.730469 247.09375 329.902344 C 247.09375 336.253906 243.527344 339.425781 236.386719 339.425781 L 211.390625 339.425781 L 211.390625 332.28125 L 236.386719 332.28125 C 238.761719 332.28125 239.957031 331.09375 239.957031 328.714844 C 239.957031 326.328125 238.761719 325.136719 236.386719 325.136719 L 225.671875 325.136719 L 225.671875 317.996094 L 236.386719 317.996094 C 238.761719 317.996094 239.957031 316.8125 239.957031 314.425781 C 239.957031 312.046875 238.761719 310.855469 236.386719 310.855469 L 211.390625 310.855469 L 211.390625 303.710938 L 237.875 303.710938 C 244.019531 303.710938 247.09375 307.28125 247.09375 314.425781 C 247.09375 316.8125 246.402344 319.191406 245.023438 321.570312 "/>
<path style=" stroke:none;fill-rule:nonzero;fill:rgb(100%,100%,100%);fill-opacity:1;" d="M 260.195312 303.710938 L 260.195312 317.996094 C 260.195312 320.378906 261.386719 321.570312 263.769531 321.570312 L 281.621094 321.570312 L 281.621094 303.710938 L 288.769531 303.710938 L 288.769531 339.425781 L 281.621094 339.425781 L 281.621094 328.714844 L 263.769531 328.714844 C 256.625 328.714844 253.050781 325.136719 253.050781 317.996094 L 253.050781 303.710938 Z M 260.195312 303.710938 "/>
<path style=" stroke:none;fill-rule:nonzero;fill:rgb(100%,100%,100%);fill-opacity:1;" d="M 330.773438 339.425781 L 323.632812 339.425781 L 323.632812 314.664062 L 302.207031 339.425781 L 295.058594 339.425781 L 295.058594 303.710938 L 302.207031 303.710938 L 302.207031 328.472656 L 323.632812 303.710938 L 330.773438 303.710938 Z M 330.773438 339.425781 "/>
<path style=" stroke:none;fill-rule:nonzero;fill:rgb(100%,100%,100%);fill-opacity:1;" d="M 372.78125 339.425781 L 363.679688 339.425781 L 352.25 325.136719 L 344.207031 325.136719 L 344.207031 339.425781 L 337.070312 339.425781 L 337.070312 303.710938 L 344.207031 303.710938 L 344.207031 317.996094 L 352.25 317.996094 L 363.679688 303.710938 L 372.78125 303.710938 L 358.5 321.570312 Z M 372.78125 339.425781 "/>
</g>
</page>
</pageSet>
</svg>
